<svg xmlns="http://www.w3.org/2000/svg" xmlns:xlink="http://www.w3.org/1999/xlink" fill="none" version="1.1" width="48" height="48" viewBox="0 0 48 48"><defs><clipPath id="master_svg0_1_0586"><rect x="14" y="14" width="20" height="20" rx="0"/></clipPath></defs><g><rect x="0" y="0" width="48" height="48" rx="6" fill="#051527" fill-opacity="1" style="mix-blend-mode:passthrough"/><g><rect x="14" y="10" width="20" height="28" rx="0" fill="#000000" fill-opacity="0" style="mix-blend-mode:passthrough"/><g clip-path="url(#master_svg0_1_0586)"><g transform="matrix(1,0,0,-1,0,66.359375)"><g><path d="M16.5,50.6796875Q15.44531,50.640587499999995,14.742188,49.9374875Q14.0390625,49.2343875,14,48.1796875L14,45.6796875Q14.0390625,44.6249875,14.742188,43.9218875Q15.44531,43.2187875,16.5,43.1796875L31.5,43.1796875Q32.5547,43.2187875,33.2578,43.9218875Q33.960899999999995,44.6249875,34,45.6796875L34,48.1796875Q33.960899999999995,49.2343875,33.2578,49.9374875Q32.5547,50.640587499999995,31.5,50.6796875L16.5,50.6796875ZM27.4375,47.8671875Q28.2969,47.7890875,28.375,46.9296875Q28.2969,46.0702875,27.4375,45.9921875Q26.5781,46.0702875,26.5,46.9296875Q26.5781,47.7890875,27.4375,47.8671875ZM29.3125,46.9296875Q29.3906,47.7890875,30.25,47.8671875Q31.1094,47.7890875,31.1875,46.9296875Q31.1094,46.0702875,30.25,45.9921875Q29.3906,46.0702875,29.3125,46.9296875ZM16.5,40.6796875Q15.44531,40.6406275,14.742188,39.9374975Q14.0390625,39.2343775,14,38.1796875L14,35.6796875Q14.0390625,34.6249975,14.742188,33.9218755Q15.44531,33.21875,16.5,33.1796875L31.5,33.1796875Q32.5547,33.21875,33.2578,33.9218755Q33.960899999999995,34.6249975,34,35.6796875L34,38.1796875Q33.960899999999995,39.2343775,33.2578,39.9374975Q32.5547,40.6406275,31.5,40.6796875L16.5,40.6796875ZM27.4375,37.8671875Q28.2969,37.7890675,28.375,36.9296875Q28.2969,36.0703075,27.4375,35.9921875Q26.5781,36.0703075,26.5,36.9296875Q26.5781,37.7890675,27.4375,37.8671875ZM29.625,36.9296875Q29.7031,37.7890675,30.5625,37.8671875Q31.4219,37.7890675,31.5,36.9296875Q31.4219,36.0703075,30.5625,35.9921875Q29.7031,36.0703075,29.625,36.9296875Z" fill="#FFFFFF" fill-opacity="1" style="mix-blend-mode:passthrough"/></g></g></g></g></g></svg>