<svg xmlns="http://www.w3.org/2000/svg" width="48" height="48" fill="none"><defs><clipPath id="a"><rect width="20" height="20" x="14" y="14" rx="0"/></clipPath></defs><rect width="48" height="48" fill="#051527" rx="6" style="mix-blend-mode:passthrough"/><rect width="20" height="28" x="14" y="10" fill="none" rx="0" style="mix-blend-mode:passthrough"/><g clip-path="url(#a)"><path fill="#FFF" d="M16.5 50.68q-1.055-.04-1.758-.743T14 48.18v-2.5q.04-1.055.742-1.758.703-.703 1.758-.742h15q1.055.039 1.758.742T34 45.68v2.5q-.04 1.054-.742 1.757-.703.704-1.758.743zm10.938-2.813q.859-.078.937-.937-.078-.86-.937-.938-.86.078-.938.938.078.86.938.937m1.875-.937q.078.86.937.937.86-.078.938-.937-.079-.86-.938-.938-.86.078-.937.938M16.5 40.68q-1.055-.04-1.758-.743T14 38.18v-2.5q.04-1.055.742-1.758.703-.703 1.758-.742h15q1.055.039 1.758.742T34 35.68v2.5q-.04 1.054-.742 1.757-.703.704-1.758.743zm10.938-2.813q.859-.078.937-.937-.078-.86-.937-.938-.86.078-.938.938.078.86.938.937m2.187-.937q.078.86.938.937.859-.078.937-.937-.078-.86-.937-.938-.86.078-.938.938" style="mix-blend-mode:passthrough" transform="matrix(1 0 0 -1 0 66.36)"/></g></svg>