<svg xmlns="http://www.w3.org/2000/svg" width="48" height="48" fill="none"><defs><clipPath id="a"><rect width="17.5" height="20" x="15.25" y="14" rx="0"/></clipPath></defs><rect width="48" height="48" fill="#051527" rx="6" style="mix-blend-mode:passthrough"/><rect width="17.5" height="28" x="15.25" y="10" fill="none" rx="0" style="mix-blend-mode:passthrough"/><g clip-path="url(#a)"><path fill="#FFF" d="M32.75 51.305V49.43zV49.43q-.078-1.328-2.578-2.227-2.461-.86-6.172-.898-3.71.039-6.172.898-2.5.899-2.578 2.227v1.875q.078 1.328 2.578 2.226 2.461.86 6.172.899 3.71-.04 6.172-.899 2.5-.898 2.578-2.226m-2.148-5.274q1.25.43 2.148 1.133V43.18q-.078-1.328-2.578-2.227-2.461-.86-6.172-.898-3.71.039-6.172.898-2.5.899-2.578 2.227v3.984q.898-.703 2.148-1.133 2.735-.937 6.602-.976 3.867.039 6.602.976M15.25 40.914q.898-.703 2.148-1.133 2.735-.937 6.602-.976 3.867.039 6.602.976 1.25.43 2.148 1.133v-3.36q-.078-1.327-2.578-2.226-2.461-.86-6.172-.898-3.71.039-6.172.898-2.5.899-2.578 2.227z" style="mix-blend-mode:passthrough" transform="matrix(1 0 0 -1 0 68.86)"/></g></svg>