<svg xmlns="http://www.w3.org/2000/svg" width="48" height="48" fill="none"><defs><clipPath id="a"><rect width="25" height="20" x="11.5" y="14" rx="0"/></clipPath></defs><rect width="48" height="48" fill="#051527" rx="6" style="mix-blend-mode:passthrough"/><rect width="25" height="28" x="11.5" y="10" fill="none" rx="0" style="mix-blend-mode:passthrough"/><g clip-path="url(#a)"><path fill="#FFF" d="M26.852 54.39q-.508.118-.977-.117-.43-.234-.586-.742l-5-17.5q-.117-.508.117-.976.235-.43.742-.586.508-.117.977.117.43.234.586.742l5 17.5q.117.508-.117.977-.235.43-.742.586m3.125-4.687q-.352-.39-.352-.898t.352-.899l3.515-3.476-3.515-3.477q-.352-.39-.352-.898t.352-.899q.39-.351.898-.351t.898.351l4.375 4.375q.352.39.352.899 0 .507-.352.898l-4.375 4.375q-.39.352-.898.352t-.898-.352m-11.954 0q-.39.352-.898.352t-.898-.352l-4.375-4.375q-.352-.39-.352-.898t.352-.899l4.375-4.375q.39-.351.898-.351t.898.351q.352.39.352.899 0 .507-.352.898l-3.515 3.477 3.515 3.476q.352.39.352.899 0 .507-.352.898" style="mix-blend-mode:passthrough" transform="matrix(1 0 0 -1 0 68.86)"/></g></svg>